<svg width="1025" height="1025" viewBox="0 0 1025 1025" fill="none" xmlns="http://www.w3.org/2000/svg">
<rect x="0.897919" y="0.0112343" width="1024" height="1024" rx="200" fill="#10B981"/>
<mask id="mask0_5_56" style="mask-type:alpha" maskUnits="userSpaceOnUse" x="0" y="0" width="1025" height="1025">
<rect x="0.897919" y="0.0112343" width="1024" height="1024" rx="200" fill="#10B981"/>
</mask>
<g mask="url(#mask0_5_56)">
<path d="M632.898 952.334H412.898L419.498 851.501H626.298L632.898 952.334Z" fill="white"/>
<path d="M93.6544 946.253H-126.346L-85.2586 851.501H121.541L93.6544 946.253Z" fill="white"/>
<path d="M363.519 950.802H143.519L167.629 851.501H374.429L363.519 950.802Z" fill="white"/>
<path d="M1167.67 946.253H947.671L919.784 851.501H1126.58L1167.67 946.253Z" fill="white"/>
<path d="M902.276 950.802H682.276L671.366 851.501H878.166L902.276 950.802Z" fill="white"/>
<path d="M619.751 813.099H419.751L425.751 721.432H613.751L619.751 813.099Z" fill="white"/>
<path d="M129.77 807.571H-70.2301L-32.8783 721.432H155.122L129.77 807.571Z" fill="white"/>
<path d="M372.526 811.706H172.526L194.444 721.432H382.444L372.526 811.706Z" fill="white"/>
<path d="M1109.73 807.571H909.732L884.381 721.432H1072.38L1109.73 807.571Z" fill="white"/>
<path d="M866.977 811.706H666.977L657.059 721.432H845.059L866.977 811.706Z" fill="white"/>
<path d="M163.665 306.666C163.665 302.248 167.246 298.666 171.665 298.666H335.665C340.083 298.666 343.665 302.248 343.665 306.666V648.666H163.665V306.666Z" fill="white"/>
<rect x="227.98" y="350.561" width="70" height="70" rx="8" fill="#10B981"/>
<rect x="227.98" y="475.536" width="70" height="70" rx="8" fill="#10B981"/>
<rect x="560.666" y="473.644" width="175" height="175" fill="white"/>
<path d="M488.178 473.644L600.608 361.214C606.857 354.965 616.987 354.965 623.236 361.214L735.666 473.644L611.922 597.387L488.178 473.644Z" fill="white"/>
<rect x="594.239" y="548.666" width="40" height="100" fill="#10B981"/>
<path d="M342.732 231.666C342.732 227.248 346.314 223.666 350.732 223.666H554.732C559.15 223.666 562.732 227.248 562.732 231.666V648.584H342.732V231.666Z" fill="white"/>
<rect x="430.595" y="542.437" width="40" height="106.229" fill="#10B981"/>
<rect x="385.162" y="376.197" width="40" height="63.7376" rx="8" fill="#10B981"/>
<rect x="475.162" y="376.197" width="40" height="63.7376" rx="8" fill="#10B981"/>
<rect x="385.162" y="280.59" width="40" height="63.7376" rx="8" fill="#10B981"/>
<rect x="475.162" y="280.59" width="40" height="63.7376" rx="8" fill="#10B981"/>
<path d="M871.398 648.666H771.646V461.153L651.398 340.905V198.666H871.398V648.666Z" fill="white"/>
<path d="M714.548 141.858L652.646 198.195H870.146L811.232 141.858L774.792 30.8444C773.714 27.5599 770.648 25.3394 767.191 25.3394H759.336C755.897 25.3394 752.843 27.5374 751.751 30.7983L714.548 141.858Z" fill="white" stroke="white"/>
</g>
</svg>
